<svg id="f7977a65-e2cc-46d5-8e2c-6f637d5bdac6" data-name="Capa 1" xmlns="http://www.w3.org/2000/svg" xmlns:xlink="http://www.w3.org/1999/xlink" viewBox="0 0 152 152.00489"><defs><clipPath id="bba58ba7-2f9e-44ce-b218-c8a4a145bff5" transform="translate(-20 -20.00054)"><rect width="192" height="192.00522" style="fill:none"/></clipPath><clipPath id="a9d7f67c-47a0-42bc-844e-28fd783ced50" transform="translate(-20 -20.00054)"><rect x="20" y="20.00054" width="152" height="13.00035" style="fill:none"/></clipPath><clipPath id="ee1510b8-819b-468a-b99b-a84c96ca2eb8" transform="translate(-20 -20.00054)"><rect x="20" y="159.00432" width="152" height="13.00035" style="fill:none"/></clipPath><clipPath id="bc3e446e-c4f3-43e2-8da4-bd14fdf54068" transform="translate(-20 -20.00054)"><path d="M63.72987,110.80807h11.627V93.04491h7.12139a17.46639,17.46639,0,0,1,5.49958-9.37852,16.65485,16.65485,0,0,1,5.129-3.01223V75.28175h17.75V60.65857A38.85862,38.85862,0,0,0,97.817,58.50685H64.50966a3.94591,3.94591,0,0,0-3.94444,3.94737V96.00543a37.22951,37.22951,0,0,0,3.16465,14.80264Z" style="fill:none"/></clipPath></defs><title>icont3</title><g id="ff7fe905-52f9-402b-85bd-1da7ecc7d7cf" data-name="background shadown"><path d="M160,172.00543H32a12.03527,12.03527,0,0,1-12-12v-128a12.03527,12.03527,0,0,1,12-12H160a12.03528,12.03528,0,0,1,12,12v128a12.03529,12.03529,0,0,1-12,12" transform="translate(-20 -20.00054)" style="fill:#e0e0e0"/><g id="b74b88ff-5cff-40c2-b09c-2d1fea996587" data-name="background"><g style="clip-path:url(#bba58ba7-2f9e-44ce-b218-c8a4a145bff5)"><g style="opacity:0.199996992945671"><g style="clip-path:url(#a9d7f67c-47a0-42bc-844e-28fd783ced50)"><path d="M160,20.00054H32A12.03545,12.03545,0,0,0,20,32.00087v1A12.03545,12.03545,0,0,1,32,21.00057H160A12.03546,12.03546,0,0,1,172,33.0009v-1a12.03546,12.03546,0,0,0-12-12.00033" transform="translate(-20 -20.00054)" style="fill:#fff"/></g></g><g style="opacity:0.100005999207497"><g style="clip-path:url(#ee1510b8-819b-468a-b99b-a84c96ca2eb8)"><path d="M160,172.00468H32a12.03544,12.03544,0,0,1-12-12.00033v-1a12.03544,12.03544,0,0,0,12,12.00033H160a12.03545,12.03545,0,0,0,12-12.00033v1a12.03545,12.03545,0,0,1-12,12.00033" transform="translate(-20 -20.00054)" style="fill:#212121"/></g></g></g></g></g><g id="ab79c908-fb83-42e7-af6b-c41b7856d46b" data-name="ISO"><path d="M115.17269,87.61519l15.66105-8.21061A1.393,1.393,0,0,0,131.4,77.5212l-.0039-.00881A38.47206,38.47206,0,0,0,79.1,63.61738q-.61989.361-1.22712.7465a37.19169,37.19169,0,0,0-15.90277,41.55787,37.89342,37.89342,0,0,0,8.33248,15.04069,38.40649,38.40649,0,0,0,43.51432,9.43653,37.34575,37.34575,0,0,0,9.28377-5.794,1.3857,1.3857,0,0,0,.11794-1.94992l-.01852-.01957-11.67562-12.4832a1.39344,1.39344,0,0,0-1.85383-.16144,16.59888,16.59888,0,0,1-3.53612,2.23757A17.26587,17.26587,0,0,1,97.00866,113.56c-8.05763-1.042-12.19512-7.694-12.49045-8.18027a17.37351,17.37351,0,0,1-2.348-10.45306A17.58884,17.58884,0,0,1,88.6479,83.10092a17.2369,17.2369,0,0,1,23.98673,2.9782c.27583.3532.5351.71814.78169,1.09286a1.3741,1.3741,0,0,0,1.75637.44321" transform="translate(-20 -20.00054)" style="fill:#ff6064"/><g style="clip-path:url(#bc3e446e-c4f3-43e2-8da4-bd14fdf54068)"><rect x="37.60688" y="37.51805" width="17.75" height="17.76316" style="fill:#ff7c8c"/><rect x="55.35688" y="37.51805" width="17.75" height="17.76316" style="fill:#ff4971"/><rect x="73.10688" y="37.51805" width="17.75" height="17.76316" style="fill:#ff4457"/><rect x="37.60688" y="55.28121" width="17.75" height="17.76316" style="fill:#ff4971"/><rect x="37.60688" y="73.04436" width="17.75" height="17.76316" style="fill:#ff4457"/><rect x="55.35688" y="55.28121" width="17.75" height="17.76316" style="fill:#ff4457"/></g></g></svg>